<svg width="427" height="277" viewBox="0 0 427 277" fill="none" xmlns="http://www.w3.org/2000/svg">
<path d="M187.06 0.740234H121.39C132.34 0.740234 143.28 11.7402 143.28 22.6302V219.63H209V33.5803C209 11.6903 198 0.740234 187.06 0.740234Z" fill="url(#paint0_linear_1_6768)"/>
<path d="M121.39 0.740479C110.45 0.740479 99.5 22.6305 99.5 22.6305L1 219.63H66.67L143.28 66.4005L165.17 22.6205C165.17 22.6205 176.12 0.730469 187.06 0.730469L121.39 0.740479Z" fill="url(#paint1_linear_1_6768)"/>
<path d="M329.34 0.740234H263.67C274.67 0.740234 285.56 11.7402 285.56 22.6302V219.63H351.23V33.5803C351.23 11.6903 340.29 0.740234 329.34 0.740234Z" fill="url(#paint2_linear_1_6768)"/>
<path d="M263.669 0.740479C252.729 0.740479 241.789 22.6305 241.789 22.6305L143.279 219.63H208.999L285.609 66.4005L307.499 22.6205C307.499 22.6205 318.449 0.730469 329.389 0.730469L263.669 0.740479Z" fill="url(#paint3_linear_1_6768)"/>
<path d="M1.79959 275.85C1.52616 275.597 1.31254 275.286 1.17416 274.94C1.03579 274.594 0.97615 274.222 0.999602 273.85V255.6C0.916821 254.126 1.1338 252.652 1.63742 251.264C2.14104 249.877 2.92082 248.607 3.92959 247.53C5.87959 245.53 8.57961 244.6 12.0096 244.6C13.6493 244.591 15.2627 245.012 16.6896 245.82C18.2055 246.674 19.5054 247.865 20.4896 249.3C21.4332 247.84 22.721 246.635 24.2396 245.79C25.7008 244.999 27.3381 244.589 28.9996 244.6C32.4296 244.6 35.1296 245.6 37.0796 247.53C38.0866 248.608 38.8645 249.879 39.3664 251.266C39.8683 252.653 40.0837 254.127 39.9996 255.6V273.89C40.0129 274.252 39.9463 274.613 39.8046 274.946C39.6629 275.28 39.4495 275.578 39.1796 275.82C38.5631 276.289 37.8096 276.544 37.0346 276.544C36.2596 276.544 35.5061 276.289 34.8896 275.82C34.6162 275.567 34.4025 275.256 34.2642 274.91C34.1258 274.564 34.0661 274.192 34.0896 273.82V255.6C34.0896 253.36 33.6763 251.74 32.8496 250.74C32.3244 250.202 31.6849 249.79 30.9785 249.534C30.2722 249.278 29.5172 249.184 28.7696 249.26C28.0218 249.209 27.2724 249.33 26.5789 249.615C25.8855 249.899 25.2665 250.339 24.7696 250.9C23.7514 252.246 23.2543 253.916 23.3696 255.6V273.89C23.393 274.262 23.3334 274.634 23.1951 274.98C23.0567 275.326 22.843 275.637 22.5696 275.89C21.9728 276.383 21.2132 276.637 20.4396 276.6C19.6712 276.643 18.9158 276.388 18.3296 275.89C18.0609 275.634 17.8517 275.322 17.7169 274.977C17.5822 274.631 17.525 274.26 17.5496 273.89V255.6C17.6495 253.927 17.1456 252.273 16.1296 250.94C15.6423 250.378 15.0333 249.934 14.3488 249.643C13.6643 249.352 12.9224 249.221 12.1796 249.26C11.432 249.184 10.677 249.278 9.97064 249.534C9.26428 249.79 8.62477 250.202 8.09961 250.74C7.26627 251.74 6.84961 253.36 6.84961 255.6V273.89C6.86499 274.252 6.79935 274.614 6.6575 274.947C6.51565 275.281 6.30115 275.579 6.0296 275.82C5.41535 276.29 4.66326 276.545 3.88962 276.545C3.11597 276.545 2.36386 276.29 1.7496 275.82L1.79959 275.85Z" fill="#12BDD2"/>
<path d="M48.5592 275.62C47.2483 275.075 46.1132 274.179 45.2792 273.03C44.4871 271.909 44.0738 270.563 44.0992 269.19C44.0759 268.158 44.314 267.136 44.7912 266.22C45.2685 265.304 45.9695 264.523 46.8292 263.95C49.0227 262.527 51.6073 261.828 54.2192 261.95C56.5073 261.832 58.7745 262.438 60.6992 263.68V262.61C60.7364 262.017 60.6407 261.423 60.4193 260.871C60.1979 260.319 59.8563 259.823 59.4192 259.42C58.3498 258.614 57.0256 258.22 55.6892 258.31C53.5002 258.246 51.3353 258.782 49.4292 259.86C48.8531 260.221 48.1971 260.433 47.5192 260.48C47.1819 260.474 46.8505 260.391 46.5505 260.237C46.2505 260.083 45.99 259.861 45.7892 259.59C45.4802 259.235 45.3067 258.781 45.2992 258.31C45.3112 257.907 45.4236 257.513 45.6261 257.163C45.8286 256.814 46.1149 256.521 46.4592 256.31C47.6749 255.473 49.0291 254.857 50.4592 254.49C52.1392 254.044 53.8709 253.822 55.6092 253.83C59.0492 253.83 61.7492 254.6 63.7092 256.16C64.6848 256.912 65.4662 257.886 65.9882 259.001C66.5101 260.116 66.7573 261.34 66.7092 262.57V273.98C66.7259 274.323 66.6643 274.665 66.5291 274.98C66.394 275.296 66.1888 275.576 65.9292 275.8C65.3297 276.271 64.5803 276.509 63.8192 276.47C63.057 276.52 62.302 276.296 61.6892 275.84C61.436 275.623 61.2366 275.35 61.1064 275.043C60.9763 274.736 60.9191 274.403 60.9392 274.07V273.58C59.2492 275.5 56.7492 276.47 53.4292 276.47C51.7641 276.534 50.1044 276.244 48.5592 275.62ZM59.1692 271.62C59.6408 271.423 60.0435 271.091 60.3268 270.666C60.6101 270.241 60.7612 269.741 60.7612 269.23C60.7612 268.719 60.6101 268.22 60.3268 267.794C60.0435 267.369 59.6408 267.037 59.1692 266.84C57.845 266.196 56.3804 265.893 54.9092 265.96C53.6181 265.885 52.332 266.176 51.1992 266.8C50.7863 267.047 50.4469 267.399 50.2165 267.821C49.9861 268.244 49.8731 268.72 49.8892 269.2C49.8747 269.681 49.9861 270.157 50.2124 270.582C50.4387 271.006 50.7719 271.364 51.1792 271.62C52.2832 272.255 53.5481 272.553 54.8192 272.48C56.3183 272.547 57.8113 272.249 59.1692 271.61V271.62Z" fill="#12BDD2"/>
<path d="M91.2396 274.111C91.2412 274.461 91.1628 274.808 91.0103 275.123C90.8578 275.438 90.6352 275.715 90.3596 275.931C89.9122 276.309 89.3449 276.514 88.7596 276.511C88.3412 276.503 87.9288 276.41 87.5473 276.238C87.1657 276.066 86.823 275.819 86.5396 275.511L80.1496 268.671L73.7096 275.511C73.4262 275.819 73.0834 276.066 72.7019 276.238C72.3204 276.41 71.9079 276.503 71.4896 276.511C70.9042 276.514 70.3369 276.309 69.8896 275.931C69.6278 275.726 69.4129 275.468 69.2596 275.173C69.1063 274.878 69.0182 274.554 69.0011 274.222C68.984 273.89 69.0385 273.559 69.1607 273.25C69.2829 272.941 69.4701 272.661 69.7096 272.431L76.7096 265.011L70.3196 258.221C69.8065 257.715 69.5061 257.032 69.4796 256.311C69.4792 255.96 69.5591 255.613 69.7134 255.298C69.8677 254.982 70.0921 254.706 70.3696 254.491C70.7926 254.107 71.3485 253.903 71.9196 253.921C72.3684 253.945 72.8078 254.06 73.2115 254.257C73.6152 254.455 73.975 254.732 74.2696 255.071L80.1796 261.331L86.0396 255.071C86.3341 254.732 86.6939 254.455 87.0977 254.257C87.5014 254.06 87.9408 253.945 88.3896 253.921C88.9607 253.903 89.5165 254.107 89.9396 254.491C90.2154 254.708 90.4387 254.984 90.5928 255.299C90.7469 255.614 90.8278 255.96 90.8296 256.311C90.8031 257.032 90.5026 257.715 89.9896 258.221L83.5896 265.011L90.5896 272.431C90.8073 272.652 90.9774 272.915 91.0892 273.204C91.201 273.493 91.2522 273.801 91.2396 274.111Z" fill="#12BDD2"/>
<path d="M109.09 274.341C108.444 273.686 107.943 272.902 107.621 272.04C107.299 271.179 107.162 270.259 107.22 269.341V251.611C107.167 250.723 107.3 249.834 107.61 249.001C107.92 248.168 108.4 247.408 109.02 246.771C109.699 246.168 110.49 245.705 111.348 245.408C112.206 245.111 113.114 244.986 114.02 245.041H127.83C128.546 245.001 129.254 245.213 129.83 245.641C130.072 245.852 130.262 246.116 130.385 246.413C130.508 246.709 130.561 247.03 130.54 247.351C130.558 247.665 130.501 247.98 130.374 248.268C130.247 248.557 130.054 248.811 129.81 249.011C129.233 249.436 128.526 249.648 127.81 249.611H115C114.738 249.596 114.476 249.641 114.234 249.741C113.992 249.842 113.775 249.995 113.6 250.191C113.237 250.642 113.055 251.212 113.09 251.791V258.001H124.41C125.126 257.963 125.833 258.175 126.41 258.601C126.649 258.812 126.836 259.075 126.959 259.37C127.082 259.664 127.137 259.982 127.12 260.301C127.135 260.616 127.078 260.932 126.951 261.221C126.824 261.511 126.632 261.767 126.39 261.971C125.812 262.394 125.106 262.606 124.39 262.571H113.13V269.401C113.093 269.979 113.275 270.55 113.64 271.001C113.815 271.196 114.032 271.35 114.274 271.45C114.516 271.55 114.778 271.595 115.04 271.581H128.8C129.516 271.543 130.223 271.755 130.8 272.181C131.04 272.393 131.229 272.658 131.352 272.954C131.475 273.25 131.529 273.571 131.51 273.891C131.528 274.205 131.471 274.52 131.344 274.808C131.217 275.097 131.024 275.351 130.78 275.551C130.202 275.974 129.496 276.186 128.78 276.151H114.33C112.413 276.259 110.531 275.609 109.09 274.341Z" fill="#12BDD2"/>
<path d="M136.389 275.851C136.125 275.592 135.921 275.28 135.789 274.934C135.658 274.589 135.604 274.219 135.629 273.851V256.581C135.602 256.215 135.653 255.847 135.778 255.502C135.904 255.157 136.102 254.843 136.359 254.581C136.958 254.126 137.688 253.881 138.439 253.881C139.191 253.881 139.921 254.126 140.519 254.581C140.782 254.84 140.984 255.153 141.114 255.498C141.243 255.844 141.296 256.213 141.269 256.581V257.871C142.284 256.568 143.594 255.526 145.091 254.831C146.589 254.135 148.23 253.806 149.879 253.871C151.128 253.807 152.375 254.013 153.537 254.476C154.698 254.938 155.746 255.646 156.609 256.551C158.334 258.579 159.214 261.192 159.069 263.851V273.851C159.093 274.222 159.033 274.595 158.895 274.941C158.756 275.287 158.543 275.598 158.269 275.851C157.673 276.345 156.913 276.598 156.139 276.561C155.364 276.609 154.601 276.354 154.009 275.851C153.748 275.591 153.544 275.278 153.413 274.933C153.282 274.588 153.226 274.219 153.249 273.851V263.851C153.308 262.459 152.864 261.093 151.999 260.001C151.563 259.523 151.027 259.148 150.429 258.903C149.83 258.657 149.185 258.547 148.539 258.581C147.574 258.525 146.608 258.674 145.705 259.019C144.802 259.364 143.982 259.896 143.299 260.581C141.984 262.112 141.316 264.096 141.439 266.111V273.961C141.463 274.333 141.403 274.705 141.265 275.051C141.126 275.397 140.913 275.708 140.639 275.961C140.043 276.455 139.283 276.708 138.509 276.671C137.723 276.686 136.961 276.391 136.389 275.851Z" fill="#12BDD2"/>
<path d="M181.75 271.81C181.726 272.437 181.509 273.041 181.13 273.54C180.433 274.517 179.482 275.285 178.38 275.76C177.118 276.306 175.755 276.579 174.38 276.56C172.34 276.674 170.338 275.976 168.81 274.62C168.125 273.925 167.594 273.094 167.25 272.181C166.905 271.268 166.755 270.294 166.81 269.32V258.93H165C164.24 258.97 163.489 258.751 162.87 258.31C162.616 258.12 162.411 257.872 162.272 257.586C162.133 257.301 162.063 256.987 162.07 256.67C162.058 256.347 162.122 256.025 162.258 255.732C162.393 255.438 162.596 255.181 162.85 254.98C163.476 254.536 164.234 254.317 165 254.36H166.82V247.66C166.801 247.296 166.863 246.932 167.001 246.595C167.14 246.258 167.351 245.956 167.62 245.71C168.211 245.206 168.975 244.952 169.75 245C170.525 244.952 171.288 245.206 171.88 245.71C172.139 245.961 172.341 246.266 172.472 246.602C172.603 246.939 172.66 247.299 172.64 247.66V254.36H176.9C177.651 254.334 178.39 254.559 179 255C179.253 255.201 179.456 255.458 179.591 255.752C179.727 256.045 179.791 256.367 179.78 256.69C179.788 257.005 179.722 257.318 179.587 257.604C179.451 257.889 179.25 258.137 179 258.33C178.376 258.779 177.617 258.998 176.85 258.95H172.59V269.83C172.573 270.116 172.618 270.403 172.721 270.67C172.825 270.938 172.984 271.18 173.19 271.38C173.408 271.579 173.663 271.734 173.941 271.833C174.219 271.933 174.515 271.976 174.81 271.96C175.287 271.969 175.762 271.888 176.21 271.72C176.662 271.516 177.074 271.235 177.43 270.89C177.973 270.262 178.734 269.865 179.56 269.78C180.106 269.81 180.623 270.034 181.02 270.41C181.244 270.569 181.427 270.778 181.554 271.022C181.681 271.265 181.748 271.535 181.75 271.81Z" fill="#12BDD2"/>
<path d="M190.409 275.18C188.589 274.35 187.055 273 185.999 271.3C184.942 269.521 184.408 267.479 184.459 265.41C184.459 261.77 185.519 258.947 187.639 256.94C189.749 254.94 192.739 253.94 196.579 253.94C198.735 253.879 200.882 254.239 202.899 255C204.568 255.631 206.038 256.694 207.159 258.08C208.175 259.362 208.719 260.955 208.699 262.59C208.735 263.204 208.63 263.818 208.395 264.386C208.159 264.954 207.799 265.461 207.339 265.87C206.241 266.706 204.877 267.118 203.499 267.03H190.139C190.098 267.751 190.236 268.472 190.541 269.126C190.847 269.781 191.31 270.349 191.889 270.78C193.446 271.722 195.254 272.162 197.069 272.04C199.221 272.107 201.346 271.552 203.189 270.44C203.842 269.962 204.606 269.659 205.409 269.56C205.69 269.573 205.964 269.643 206.217 269.765C206.47 269.887 206.695 270.059 206.879 270.27C207.109 270.479 207.294 270.731 207.423 271.013C207.552 271.295 207.622 271.6 207.629 271.91C207.634 272.244 207.555 272.573 207.399 272.868C207.244 273.164 207.017 273.415 206.739 273.6C205.431 274.578 203.958 275.313 202.389 275.77C200.663 276.284 198.87 276.54 197.069 276.53C194.776 276.594 192.498 276.132 190.409 275.18ZM201.729 263C202.107 263.042 202.486 262.939 202.789 262.71C202.905 262.583 202.992 262.432 203.045 262.268C203.099 262.105 203.117 261.932 203.099 261.76C203.083 261.226 202.908 260.708 202.596 260.273C202.285 259.839 201.851 259.507 201.349 259.32C199.862 258.665 198.243 258.36 196.619 258.43C194.968 258.342 193.331 258.776 191.939 259.67C191.399 260.039 190.96 260.536 190.661 261.118C190.363 261.7 190.214 262.347 190.229 263H201.729Z" fill="#12BDD2"/>
<path d="M213.09 275.851C212.829 275.59 212.627 275.277 212.498 274.932C212.369 274.587 212.315 274.218 212.34 273.851V256.581C212.309 256.214 212.359 255.846 212.485 255.5C212.611 255.155 212.811 254.841 213.07 254.581C213.64 254.09 214.379 253.843 215.13 253.891C215.893 253.844 216.643 254.099 217.22 254.601C217.482 254.86 217.685 255.173 217.814 255.518C217.944 255.864 217.997 256.233 217.97 256.601V258.071C218.827 256.932 219.927 256 221.19 255.341C222.42 254.683 223.794 254.339 225.19 254.341H226.19C226.969 254.292 227.743 254.503 228.39 254.941C228.635 255.153 228.832 255.415 228.967 255.71C229.102 256.005 229.172 256.326 229.172 256.651C229.172 256.975 229.102 257.296 228.967 257.591C228.832 257.886 228.635 258.148 228.39 258.361C227.743 258.798 226.969 259.009 226.19 258.961H224.68C223.803 258.92 222.928 259.067 222.112 259.391C221.297 259.715 220.559 260.209 219.95 260.841C218.719 262.276 218.092 264.133 218.2 266.021V273.871C218.223 274.242 218.163 274.615 218.025 274.961C217.887 275.307 217.673 275.617 217.4 275.871C216.803 276.365 216.043 276.618 215.27 276.581C214.876 276.608 214.481 276.558 214.107 276.433C213.733 276.307 213.387 276.11 213.09 275.851Z" fill="#12BDD2"/>
<path d="M249.58 271.81C249.556 272.437 249.339 273.041 248.96 273.54C248.261 274.519 247.306 275.287 246.2 275.76C244.939 276.309 243.575 276.582 242.2 276.56C240.159 276.677 238.156 275.979 236.63 274.62C235.945 273.925 235.414 273.094 235.069 272.181C234.725 271.268 234.575 270.294 234.63 269.32V258.93H232.8C232.04 258.973 231.288 258.754 230.67 258.31C230.416 258.12 230.211 257.872 230.072 257.586C229.933 257.301 229.863 256.987 229.87 256.67C229.858 256.347 229.922 256.025 230.058 255.732C230.193 255.438 230.396 255.181 230.65 254.98C231.274 254.534 232.033 254.315 232.8 254.36H234.62V247.66C234.601 247.296 234.663 246.932 234.801 246.595C234.939 246.258 235.151 245.956 235.42 245.71C236.011 245.206 236.774 244.952 237.55 245C238.325 244.952 239.088 245.206 239.68 245.71C239.935 245.964 240.134 246.268 240.263 246.605C240.393 246.941 240.449 247.3 240.43 247.66V254.36H244.7C245.466 254.317 246.224 254.536 246.85 254.98C247.105 255.178 247.308 255.436 247.443 255.73C247.577 256.024 247.637 256.347 247.62 256.67C247.629 256.985 247.565 257.297 247.431 257.582C247.297 257.867 247.098 258.116 246.85 258.31C246.225 258.758 245.466 258.977 244.7 258.93H240.43V269.81C240.413 270.096 240.457 270.383 240.561 270.65C240.664 270.918 240.824 271.16 241.03 271.36C241.247 271.559 241.503 271.714 241.781 271.813C242.059 271.913 242.355 271.956 242.65 271.94C243.127 271.95 243.603 271.869 244.05 271.7C244.503 271.499 244.916 271.218 245.27 270.87C245.812 270.242 246.574 269.845 247.4 269.76C247.949 269.79 248.469 270.013 248.87 270.39C249.091 270.554 249.27 270.769 249.394 271.015C249.517 271.262 249.581 271.534 249.58 271.81Z" fill="#12BDD2"/>
<path d="M256.79 275.62C255.477 275.078 254.341 274.181 253.51 273.03C252.718 271.909 252.304 270.563 252.33 269.19C252.306 268.158 252.544 267.136 253.022 266.22C253.499 265.304 254.2 264.523 255.06 263.95C257.253 262.526 259.838 261.826 262.45 261.95C264.737 261.838 267.002 262.443 268.93 263.68V262.61C268.966 262.016 268.868 261.421 268.645 260.869C268.422 260.318 268.079 259.822 267.64 259.42C266.574 258.615 265.253 258.22 263.92 258.31C261.731 258.246 259.566 258.782 257.66 259.86C257.084 260.221 256.428 260.433 255.75 260.48C255.412 260.474 255.081 260.391 254.781 260.237C254.481 260.083 254.221 259.861 254.02 259.59C253.711 259.235 253.537 258.781 253.53 258.31C253.54 257.908 253.65 257.514 253.851 257.164C254.052 256.815 254.337 256.522 254.68 256.31C255.896 255.474 257.25 254.858 258.68 254.49C260.36 254.044 262.091 253.822 263.83 253.83C267.26 253.83 269.96 254.6 271.93 256.16C272.896 256.917 273.668 257.893 274.181 259.008C274.694 260.123 274.934 261.344 274.88 262.57V273.98C274.896 274.322 274.835 274.663 274.702 274.978C274.569 275.293 274.366 275.574 274.11 275.8C273.51 276.271 272.761 276.509 272 276.47C271.237 276.52 270.482 276.296 269.87 275.84C269.613 275.625 269.411 275.353 269.279 275.046C269.147 274.738 269.089 274.404 269.11 274.07V273.58C267.43 275.5 264.93 276.47 261.61 276.47C259.961 276.527 258.319 276.237 256.79 275.62ZM267.4 271.62C267.871 271.423 268.274 271.091 268.557 270.666C268.841 270.241 268.992 269.741 268.992 269.23C268.992 268.719 268.841 268.22 268.557 267.794C268.274 267.369 267.871 267.037 267.4 266.84C266.075 266.196 264.611 265.893 263.14 265.96C261.849 265.885 260.562 266.176 259.43 266.8C259.017 267.047 258.677 267.399 258.447 267.821C258.217 268.244 258.104 268.72 258.12 269.2C258.105 269.681 258.217 270.157 258.443 270.582C258.669 271.006 259.002 271.364 259.41 271.62C260.514 272.255 261.779 272.553 263.05 272.48C264.549 272.547 266.042 272.249 267.4 271.61V271.62Z" fill="#12BDD2"/>
<path d="M386.25 59.3498C381.507 57.5928 377.182 54.8684 373.549 51.3498C373.15 50.9792 372.83 50.5308 372.61 50.0321C372.39 49.5334 372.274 48.995 372.27 48.4499C372.299 47.7697 372.464 47.1022 372.756 46.4872C373.048 45.8722 373.461 45.3222 373.969 44.8699C374.351 44.4509 374.813 44.1141 375.329 43.8803C375.845 43.6464 376.403 43.5204 376.969 43.5099C378.518 43.7022 379.957 44.4061 381.06 45.5099C383.825 48.0074 387.057 49.9342 390.57 51.1798C394.216 52.5086 398.068 53.1855 401.95 53.1798C405.7 53.1798 408.619 52.5399 410.729 51.2599C411.702 50.7354 412.51 49.9528 413.066 48.9983C413.622 48.0437 413.903 46.9542 413.88 45.8498C413.88 44.6507 413.565 43.4727 412.967 42.4336C412.368 41.3946 411.507 40.5311 410.469 39.9298C408.203 38.4232 404.34 37.0898 398.88 35.9298C390.3 34.0498 384.063 31.5765 380.169 28.5099C378.322 27.1435 376.827 25.355 375.812 23.2936C374.796 21.2321 374.287 18.9576 374.33 16.6598C374.313 13.6354 375.401 10.7091 377.39 8.42985C379.706 5.83973 382.661 3.90202 385.96 2.80985C394.661 -0.0557621 404.083 0.152538 412.65 3.39988C416.423 4.87674 419.693 7.40718 422.07 10.6899C422.702 11.5974 423.082 12.657 423.169 13.7599C423.125 14.4952 422.909 15.2099 422.539 15.8471C422.169 16.4843 421.656 17.0263 421.039 17.4298C420.286 17.9429 419.391 18.2085 418.479 18.1899C417.651 18.2118 416.829 18.0429 416.076 17.6961C415.324 17.3493 414.661 16.8339 414.14 16.1899C412.357 14.105 410.086 12.4938 407.53 11.4999C404.672 10.3396 401.613 9.75838 398.53 9.78983C394.53 9.78983 391.349 10.4099 389.109 11.6299C386.869 12.8499 385.74 14.5399 385.74 16.6999C385.76 17.8003 386.075 18.8751 386.652 19.8124C387.229 20.7498 388.047 21.5155 389.02 22.0299C391.213 23.4232 395.006 24.7566 400.4 26.0299C405.363 27.1094 410.195 28.7255 414.81 30.8498C417.976 32.2462 420.731 34.4328 422.81 37.1999C424.532 39.7973 425.409 42.8643 425.32 45.9798C425.368 49.0834 424.347 52.1092 422.43 54.5498C420.278 57.1716 417.444 59.1477 414.24 60.2599C410.304 61.6617 406.147 62.3392 401.969 62.2599C396.596 62.2579 391.268 61.2716 386.25 59.3498ZM413 137.13C412.164 131.643 409.99 126.447 406.669 122C403.509 117.96 398.92 114.377 392.9 111.25L384.46 118.25V135.82C384.486 136.515 384.358 137.207 384.084 137.847C383.811 138.487 383.4 139.058 382.88 139.52C381.698 140.419 380.254 140.905 378.77 140.905C377.285 140.905 375.841 140.419 374.659 139.52C374.141 139.048 373.735 138.466 373.468 137.818C373.202 137.169 373.083 136.47 373.12 135.77V84.6199C373.083 83.9198 373.202 83.2204 373.468 82.5719C373.735 81.9235 374.141 81.3421 374.659 80.8699C375.84 79.9681 377.284 79.4795 378.77 79.4795C380.255 79.4795 381.699 79.9681 382.88 80.8699C383.4 81.3336 383.812 81.9067 384.085 82.5481C384.358 83.1894 384.486 83.8833 384.46 84.5799V105.8L412.93 80.9999C413.884 80.0612 415.171 79.5397 416.51 79.5498C417.187 79.5501 417.857 79.6948 418.474 79.9741C419.091 80.2534 419.642 80.661 420.09 81.1698C421.02 82.0392 421.597 83.2214 421.71 84.4898C421.648 85.194 421.438 85.8772 421.093 86.4943C420.749 87.1114 420.277 87.6484 419.71 88.0699L400.099 105.07C406.538 107.739 412.167 112.045 416.43 117.56C420.404 122.725 422.921 128.861 423.719 135.33C423.818 136.012 423.77 136.707 423.578 137.37C423.387 138.032 423.057 138.645 422.609 139.17C422.188 139.689 421.654 140.105 421.047 140.386C420.441 140.667 419.778 140.805 419.109 140.79C415.503 140.85 413.466 139.63 413 137.13ZM425.44 159.62C425.958 160.092 426.364 160.673 426.631 161.322C426.897 161.97 427.016 162.67 426.979 163.37V172.37C426.979 179.917 425.076 186.067 421.27 190.82C417.463 195.573 412.15 198.456 405.33 199.47V214.56C405.356 215.256 405.228 215.95 404.955 216.592C404.682 217.233 404.27 217.806 403.75 218.27C402.567 219.171 401.121 219.659 399.635 219.659C398.148 219.659 396.702 219.171 395.52 218.27C395.003 217.797 394.598 217.215 394.334 216.567C394.069 215.918 393.952 215.219 393.99 214.52V199.43C387.11 198.41 381.776 195.54 377.99 190.82C374.203 186.1 372.3 179.937 372.28 172.33V163.33C372.244 162.631 372.362 161.932 372.627 161.284C372.891 160.636 373.295 160.054 373.81 159.58C374.993 158.682 376.439 158.196 377.924 158.196C379.41 158.196 380.856 158.682 382.039 159.58C382.56 160.042 382.971 160.613 383.244 161.253C383.518 161.892 383.646 162.585 383.62 163.28V172.49C383.62 178.397 384.996 182.93 387.75 186.09C390.503 189.25 394.47 190.827 399.65 190.82C404.816 190.82 408.779 189.243 411.539 186.09C414.299 182.937 415.676 178.403 415.669 172.49V163.28C415.643 162.585 415.771 161.892 416.045 161.253C416.318 160.613 416.729 160.042 417.25 159.58C418.431 158.681 419.875 158.195 421.359 158.195C422.844 158.195 424.288 158.681 425.469 159.58L425.44 159.62Z" fill="#2CC0D6"/>
<path d="M279.779 250.26C279.451 249.959 279.191 249.59 279.019 249.18C278.846 248.769 278.765 248.326 278.779 247.88C278.763 247.436 278.845 246.994 279.017 246.585C279.19 246.175 279.45 245.809 279.779 245.51C280.513 244.879 281.462 244.553 282.429 244.6C283.405 244.558 284.361 244.883 285.109 245.51C285.441 245.806 285.703 246.173 285.876 246.583C286.049 246.993 286.129 247.436 286.109 247.88C286.13 248.326 286.051 248.772 285.878 249.183C285.705 249.595 285.443 249.963 285.109 250.26C284.357 250.88 283.404 251.204 282.429 251.17C281.463 251.213 280.516 250.888 279.779 250.26ZM280.339 275.85C280.077 275.59 279.874 275.277 279.743 274.932C279.612 274.587 279.556 274.218 279.579 273.85V256.58C279.554 256.212 279.608 255.842 279.739 255.497C279.871 255.151 280.075 254.839 280.339 254.58C280.931 254.077 281.694 253.822 282.469 253.87C283.244 253.822 284.008 254.077 284.599 254.58C284.875 254.832 285.09 255.142 285.229 255.488C285.367 255.835 285.426 256.208 285.399 256.58V273.89C285.423 274.262 285.363 274.634 285.225 274.98C285.086 275.326 284.873 275.637 284.599 275.89C284.003 276.385 283.243 276.638 282.469 276.6C281.689 276.637 280.925 276.368 280.339 275.85Z" fill="#12BDD2"/>
<path d="M290.999 275.851C290.738 275.59 290.537 275.277 290.407 274.932C290.278 274.587 290.224 274.218 290.249 273.851V256.581C290.219 256.215 290.268 255.846 290.394 255.501C290.52 255.155 290.72 254.842 290.979 254.581C291.576 254.127 292.304 253.882 293.054 253.882C293.803 253.882 294.532 254.127 295.129 254.581C295.393 254.839 295.598 255.152 295.729 255.497C295.86 255.843 295.915 256.212 295.889 256.581V257.871C296.904 256.569 298.214 255.527 299.711 254.831C301.208 254.135 302.849 253.806 304.499 253.871C305.746 253.807 306.992 254.013 308.152 254.475C309.312 254.938 310.358 255.646 311.219 256.551C312.946 258.579 313.83 261.191 313.689 263.851V273.851C313.712 274.223 313.653 274.595 313.514 274.941C313.376 275.287 313.162 275.598 312.889 275.851C312.291 276.343 311.532 276.596 310.759 276.561C309.984 276.609 309.22 276.354 308.629 275.851C308.365 275.592 308.16 275.28 308.029 274.934C307.898 274.589 307.843 274.219 307.869 273.851V263.851C307.955 262.427 307.513 261.021 306.629 259.901C306.192 259.424 305.656 259.049 305.058 258.804C304.46 258.558 303.815 258.448 303.169 258.481C302.204 258.425 301.238 258.574 300.334 258.919C299.431 259.264 298.611 259.796 297.929 260.481C296.606 262.008 295.934 263.994 296.059 266.011V273.861C296.084 274.233 296.026 274.606 295.887 274.952C295.749 275.299 295.534 275.609 295.259 275.861C294.663 276.355 293.903 276.609 293.129 276.571C292.352 276.616 291.589 276.358 290.999 275.851Z" fill="#12BDD2"/>
<path d="M318.29 275.851C318.029 275.59 317.828 275.277 317.698 274.932C317.569 274.587 317.515 274.219 317.54 273.851V256.581C317.513 256.213 317.566 255.844 317.696 255.499C317.825 255.153 318.028 254.84 318.29 254.581C318.881 254.078 319.645 253.823 320.42 253.871C321.195 253.823 321.959 254.078 322.55 254.581C322.828 254.831 323.044 255.141 323.183 255.488C323.321 255.835 323.379 256.209 323.35 256.581V257.651C323.969 256.532 324.855 255.583 325.93 254.891C326.933 254.24 328.104 253.892 329.3 253.891C330.499 253.876 331.674 254.225 332.67 254.891C333.681 255.556 334.471 256.506 334.94 257.621C337.04 255.128 339.42 253.884 342.08 253.891C343.135 253.841 344.187 254.039 345.151 254.47C346.115 254.9 346.964 255.552 347.63 256.371C349.07 258.384 349.776 260.83 349.63 263.301V273.861C349.654 274.233 349.594 274.605 349.456 274.951C349.317 275.297 349.104 275.608 348.83 275.861C348.234 276.355 347.474 276.609 346.7 276.571C345.925 276.619 345.161 276.364 344.57 275.861C344.31 275.6 344.108 275.287 343.978 274.942C343.849 274.597 343.795 274.229 343.82 273.861V263.001C343.895 261.848 343.624 260.698 343.04 259.701C342.79 259.329 342.447 259.028 342.046 258.829C341.644 258.629 341.198 258.536 340.75 258.561C339.94 258.547 339.147 258.796 338.49 259.271C337.725 259.886 337.104 260.661 336.67 261.541V273.921C336.694 274.293 336.634 274.665 336.496 275.011C336.357 275.357 336.144 275.668 335.87 275.921C335.274 276.415 334.514 276.669 333.74 276.631C332.965 276.679 332.201 276.424 331.61 275.921C331.346 275.663 331.141 275.35 331.01 275.005C330.879 274.659 330.824 274.289 330.85 273.921V263.921C330.85 260.341 329.83 258.551 327.79 258.551C327.152 258.528 326.518 258.667 325.947 258.956C325.377 259.244 324.89 259.673 324.53 260.201C323.671 261.546 323.258 263.128 323.35 264.721V273.911C323.376 274.283 323.317 274.656 323.179 275.002C323.04 275.349 322.825 275.659 322.55 275.911C321.954 276.405 321.194 276.659 320.42 276.621C319.637 276.652 318.872 276.376 318.29 275.851Z" fill="#12BDD2"/>
<path d="M359 275.18C357.196 274.34 355.677 272.992 354.63 271.3C353.582 269.517 353.052 267.478 353.1 265.41C353.1 261.77 354.156 258.947 356.27 256.94C358.39 254.94 361.37 253.94 365.22 253.94C367.365 253.901 369.498 254.278 371.5 255.05C373.168 255.681 374.638 256.744 375.76 258.13C376.769 259.415 377.308 261.007 377.29 262.64C377.326 263.253 377.223 263.867 376.99 264.435C376.756 265.003 376.397 265.51 375.94 265.92C374.84 266.754 373.477 267.165 372.1 267.08H358.69C358.646 267.802 358.783 268.522 359.089 269.177C359.395 269.832 359.859 270.4 360.44 270.83C361.992 271.773 363.798 272.213 365.61 272.09C367.764 272.157 369.892 271.601 371.74 270.49C372.391 270.009 373.156 269.706 373.96 269.61C374.239 269.62 374.513 269.688 374.765 269.81C375.016 269.933 375.239 270.106 375.42 270.32C375.651 270.528 375.837 270.781 375.967 271.062C376.098 271.344 376.17 271.65 376.18 271.96C376.184 272.294 376.105 272.623 375.949 272.918C375.794 273.214 375.567 273.465 375.29 273.65C373.979 274.624 372.506 275.359 370.94 275.82C369.21 276.333 367.414 276.59 365.61 276.58C363.329 276.618 361.069 276.14 359 275.18ZM370.27 263C370.65 263.04 371.031 262.936 371.34 262.71C371.453 262.581 371.539 262.43 371.592 262.267C371.645 262.104 371.665 261.931 371.65 261.76C371.631 261.225 371.454 260.707 371.141 260.272C370.828 259.838 370.392 259.507 369.89 259.32C368.406 258.665 366.79 258.36 365.17 258.43C363.515 258.341 361.874 258.775 360.48 259.67C359.94 260.039 359.5 260.536 359.201 261.118C358.903 261.7 358.754 262.347 358.77 263H370.27Z" fill="#12BDD2"/>
<path d="M381.63 275.851C381.369 275.59 381.167 275.277 381.038 274.932C380.909 274.587 380.855 274.218 380.88 273.851V256.581C380.849 256.215 380.899 255.846 381.025 255.501C381.151 255.155 381.351 254.842 381.61 254.581C382.206 254.127 382.935 253.882 383.685 253.882C384.434 253.882 385.163 254.127 385.76 254.581C386.025 254.838 386.231 255.151 386.363 255.496C386.494 255.842 386.548 256.212 386.52 256.581V257.871C387.534 256.569 388.844 255.527 390.342 254.831C391.839 254.135 393.48 253.806 395.13 253.871C396.377 253.807 397.623 254.013 398.783 254.475C399.943 254.938 400.989 255.646 401.85 256.551C403.581 258.576 404.466 261.19 404.32 263.851V273.851C404.343 274.223 404.284 274.595 404.145 274.941C404.007 275.287 403.793 275.598 403.52 275.851C402.923 276.345 402.164 276.599 401.39 276.561C400.615 276.609 399.851 276.354 399.26 275.851C398.996 275.592 398.791 275.28 398.66 274.934C398.529 274.589 398.474 274.219 398.5 273.851V263.851C398.585 262.427 398.144 261.021 397.26 259.901C396.824 259.423 396.287 259.048 395.689 258.803C395.091 258.557 394.446 258.447 393.8 258.481C392.835 258.425 391.869 258.574 390.965 258.919C390.062 259.264 389.242 259.796 388.56 260.481C387.24 262.01 386.57 263.994 386.69 266.011V273.861C386.715 274.232 386.657 274.604 386.521 274.95C386.384 275.296 386.172 275.607 385.9 275.861C385.302 276.353 384.543 276.606 383.77 276.571C382.99 276.619 382.222 276.36 381.63 275.851Z" fill="#12BDD2"/>
<path d="M427 271.811C426.976 272.437 426.76 273.041 426.38 273.541C425.683 274.518 424.732 275.285 423.63 275.761C422.368 276.307 421.005 276.58 419.63 276.561C417.59 276.677 415.587 275.979 414.06 274.621C413.376 273.925 412.844 273.095 412.5 272.182C412.155 271.269 412.006 270.295 412.06 269.321V258.931H410.24C409.48 258.973 408.728 258.755 408.11 258.311C407.856 258.12 407.651 257.872 407.512 257.587C407.373 257.302 407.304 256.988 407.31 256.671C407.298 256.347 407.363 256.026 407.498 255.733C407.634 255.439 407.836 255.181 408.09 254.981C408.715 254.536 409.474 254.317 410.24 254.361H412V247.661C411.981 247.297 412.043 246.933 412.182 246.596C412.32 246.259 412.531 245.957 412.8 245.711C413.101 245.453 413.451 245.257 413.829 245.135C414.206 245.013 414.605 244.968 415 245.001C415.775 244.953 416.539 245.207 417.13 245.711C417.387 245.963 417.588 246.268 417.719 246.604C417.85 246.94 417.908 247.3 417.89 247.661V254.361H422.15C422.916 254.318 423.674 254.537 424.3 254.981C424.553 255.181 424.756 255.439 424.892 255.733C425.027 256.026 425.092 256.347 425.08 256.671C425.089 256.986 425.022 257.299 424.887 257.584C424.751 257.869 424.55 258.118 424.3 258.311C423.676 258.758 422.917 258.977 422.15 258.931H417.89V269.811C417.873 270.097 417.918 270.383 418.021 270.651C418.125 270.918 418.285 271.16 418.49 271.361C418.707 271.562 418.962 271.717 419.241 271.816C419.519 271.916 419.815 271.958 420.11 271.941C420.584 271.95 421.056 271.869 421.5 271.701C421.953 271.499 422.366 271.218 422.72 270.871C423.263 270.243 424.025 269.846 424.85 269.761C425.399 269.789 425.921 270.012 426.32 270.391C426.536 270.558 426.71 270.774 426.828 271.02C426.946 271.267 427.005 271.537 427 271.811Z" fill="#12BDD2"/>
<defs>
<linearGradient id="paint0_linear_1_6768" x1="165.17" y1="0.740234" x2="165.17" y2="219.64" gradientUnits="userSpaceOnUse">
<stop offset="0.01" stop-color="#036A7B"/>
<stop offset="1" stop-color="#26B6CB"/>
</linearGradient>
<linearGradient id="paint1_linear_1_6768" x1="94.03" y1="0.740469" x2="94.03" y2="219.64" gradientUnits="userSpaceOnUse">
<stop stop-color="#C0ECF3"/>
<stop offset="0.04" stop-color="#B5E9F1"/>
<stop offset="0.19" stop-color="#8BDDE9"/>
<stop offset="0.34" stop-color="#69D3E2"/>
<stop offset="0.5" stop-color="#4ECBDD"/>
<stop offset="0.66" stop-color="#3BC5DA"/>
<stop offset="0.83" stop-color="#30C2D8"/>
<stop offset="1" stop-color="#2CC1D7"/>
</linearGradient>
<linearGradient id="paint2_linear_1_6768" x1="307.45" y1="0.740234" x2="307.45" y2="219.64" gradientUnits="userSpaceOnUse">
<stop offset="0.01" stop-color="#036A7B"/>
<stop offset="1" stop-color="#26B6CB"/>
</linearGradient>
<linearGradient id="paint3_linear_1_6768" x1="236.309" y1="0.740469" x2="236.309" y2="219.64" gradientUnits="userSpaceOnUse">
<stop stop-color="#C0ECF3"/>
<stop offset="0.01" stop-color="#B5E9F1"/>
<stop offset="0.08" stop-color="#8BDDE9"/>
<stop offset="0.14" stop-color="#69D3E2"/>
<stop offset="0.2" stop-color="#4ECBDD"/>
<stop offset="0.26" stop-color="#3BC5DA"/>
<stop offset="0.33" stop-color="#30C2D8"/>
<stop offset="0.4" stop-color="#2CC1D7"/>
</linearGradient>
</defs>
</svg>
